<svg id="Layer_1" enable-background="new 0 0 508.766 508.766" height="65" viewBox="0 0 508.766 508.766" width="65" xmlns="http://www.w3.org/2000/svg"><g><path d="m302.028 72.716-39.732 42.015-32.95-8.312 24.254-.048.882-.933c-4.236-3.723-9.616-5.925-15.399-5.925-15.037 0-25.613 0-42.303 0-11.701 0-21.718 8.93-23.99 21.346l-37.393 204.362c-1.274 6.961 3.674 13.444 10.2 13.444h19.917v145.575c0 13.545 10.98 24.525 24.525 24.525s24.525-10.98 24.525-24.525v-145.573h8.544l12.395 46.791 4.252 99.826c.577 13.533 12.014 24.036 25.547 23.459s24.036-12.014 23.459-25.547l-4.366-102.487c-.076-1.769-.342-3.525-.796-5.236l-9.75-36.806h16.415c6.541 0 11.475-6.473 10.2-13.444l-28.01-153.093c-4.434.191-8.922-.96-12.791-3.496l-30.883-20.201 35.135 8.863c7.277 1.835 14.838-.477 19.848-5.775l47.963-50.72c7.756-8.201 7.394-21.137-.807-28.892-8.2-7.755-21.136-7.394-28.891.807z"/><path d="m363.331 63.465-69.28-25.641c-8.119-3.005-17.136 1.141-20.141 9.26l-.077.207-13.94-5.263c0-.022.002-.043.002-.065-.001-23.176-18.788-41.963-41.963-41.963s-41.962 18.787-41.962 41.962 18.787 41.962 41.962 41.962c15.476 0 28.985-8.384 36.26-20.851l12.108 4.571-.052.141c-2.603 7.033.166 14.735 6.231 18.623l20.785-21.98c12.333-13.042 32.902-13.616 45.944-1.284 13.042 12.333 13.616 32.903 1.284 45.944l-2.024 2.14 6.319 2.339c8.119 3.005 17.136-1.141 20.141-9.26l7.662-20.702c3.005-8.118-1.141-17.135-9.259-20.14z"/></g></svg>