<svg xmlns="http://www.w3.org/2000/svg" width="55" height="55" viewBox="0 0 55 55">
  <g id="Group_1789" data-name="Group 1789" transform="translate(-996 -3831)">
    <circle id="circle" cx="27.5" cy="27.5" r="27.5" transform="translate(996 3831)" fill="#0e38b1"/>
    <g id="team" transform="translate(1006 3777.934)">
      <g id="Group_33" data-name="Group 33" transform="translate(27.168 79.16)">
        <g id="Group_32" data-name="Group 32">
          <path id="Path_355" data-name="Path 355" d="M396.83,229.058a10.122,10.122,0,0,0-3.56-.609.519.519,0,0,0,0,1.038,8.959,8.959,0,0,1,3.1.5.519.519,0,0,0,.464-.928Z" transform="translate(-392.751 -228.449)" fill="#fff"/>
        </g>
      </g>
      <g id="Group_35" data-name="Group 35" transform="translate(0 68.066)">
        <g id="Group_34" data-name="Group 34" transform="translate(0 0)">
          <path id="Path_356" data-name="Path 356" d="M33.834,87.156l-2.143-.612a.218.218,0,0,1-.157-.208V85.62a3.9,3.9,0,0,0,.5-.407A3.817,3.817,0,0,0,33.2,82.453v-.987l.207-.414a3.31,3.31,0,0,0,.348-1.472V76.905a.519.519,0,0,0-.519-.519H28.241a3.3,3.3,0,0,0-3.292,3.292v.031a2.752,2.752,0,0,0,.289,1.224l.266.531v.847a4.048,4.048,0,0,0,1.664,3.273v.75c0,.116,0,.163-.428.286l-1.045.3-3.024-1.1a.518.518,0,0,0-.141-.4l-.966-1.015V82.7c.1-.084.2-.171.3-.262a6.089,6.089,0,0,0,1.918-4.426V76.654a6,6,0,0,0,.555-2.522V68.585a.519.519,0,0,0-.519-.519H16.051a4.962,4.962,0,0,0-4.956,4.956v1.109a6,6,0,0,0,.555,2.522v1.171a6.339,6.339,0,0,0,2.219,4.838v1.745L12.9,85.423a.518.518,0,0,0-.141.4L9.568,86.981a2.721,2.721,0,0,0-.641.336l-.5-.251a3.962,3.962,0,0,0,1.987-1.608.519.519,0,0,0,0-.464,9.217,9.217,0,0,1-.456-3.221c-.012-.367-.024-.713-.046-1.022a4.513,4.513,0,0,0-4.4-4.365,4.513,4.513,0,0,0-4.4,4.365c-.022.309-.033.655-.046,1.022a9.217,9.217,0,0,1-.456,3.221.519.519,0,0,0,0,.464A3.962,3.962,0,0,0,2.6,87.065l-1.392.7A2.172,2.172,0,0,0,0,89.714v3.833a.519.519,0,1,0,1.038,0V89.714a1.139,1.139,0,0,1,.633-1.024L3.4,87.823l.6.573a2.182,2.182,0,0,0,3.008,0l.6-.573.565.283a2.732,2.732,0,0,0-.417,1.448v3.993a.519.519,0,1,0,1.038,0V89.554a1.705,1.705,0,0,1,1.119-1.6l3.365-1.224,1.4,2.1a1.07,1.07,0,0,0,.787.473q.054.005.107.005A1.069,1.069,0,0,0,16.341,89l.855-.855v5.4a.519.519,0,0,0,1.038,0v-5.4l.855.855a1.069,1.069,0,0,0,.758.315q.053,0,.107-.005a1.07,1.07,0,0,0,.787-.473l1.4-2.1,3.365,1.224a1.705,1.705,0,0,1,1.119,1.6v3.993a.519.519,0,0,0,1.038,0V89.554a2.743,2.743,0,0,0-.767-1.9l.128-.037a2.845,2.845,0,0,0,.483-.174l1.325,1.325v4.778a.519.519,0,0,0,1.038,0V88.77l1.315-1.315a1.233,1.233,0,0,0,.221.088l2.143.612a1.15,1.15,0,0,1,.831,1.1v4.292a.519.519,0,0,0,1.038,0V89.255A2.192,2.192,0,0,0,33.834,87.156ZM3.328,86.24a3.73,3.73,0,0,1-1.665-1.069,5.719,5.719,0,0,0,.3-1.242,3.869,3.869,0,0,0,1.369,1.689Zm2.972,1.4a1.145,1.145,0,0,1-1.578,0l-.482-.458a1.073,1.073,0,0,0,.126-.507v-.553a3.858,3.858,0,0,0,2.291,0v.553a1.074,1.074,0,0,0,.126.507Zm-.789-2.382A2.813,2.813,0,0,1,2.7,82.453a.516.516,0,0,0-.6-.511l0-.134c.012-.357.023-.694.043-.983a3.852,3.852,0,0,1,1.049-2.419,3.223,3.223,0,0,1,4.633,0,3.852,3.852,0,0,1,1.049,2.419c.02.289.032.626.043.982l0,.093a4.662,4.662,0,0,0-2.563-1.872,6.511,6.511,0,0,0-1.973-.313.519.519,0,0,0-.359.158l-.936.971a.519.519,0,0,0,.747.72l.779-.808c.671.033,2.829.284,3.668,2.132A2.8,2.8,0,0,1,5.511,85.262Zm2.183.979v-.619a3.838,3.838,0,0,0,1.37-1.691,5.711,5.711,0,0,0,.3,1.239A3.747,3.747,0,0,1,7.694,86.241Zm4.993-8.417V76.538a.519.519,0,0,0-.052-.226,4.976,4.976,0,0,1-.5-2.18V73.023A3.923,3.923,0,0,1,16.051,69.1H23.3v5.028a4.976,4.976,0,0,1-.5,2.18.519.519,0,0,0-.052.226v1.477a4.981,4.981,0,0,1-1.59,3.669,5.162,5.162,0,0,1-.4.337l-.009.007a4.988,4.988,0,0,1-3.366,1A5.139,5.139,0,0,1,12.687,77.825Zm2.921,10.439a.033.033,0,0,1-.029.01.033.033,0,0,1-.026-.016l-1.613-2.42.519-.546,2.448,1.673Zm2.107-2-2.809-1.92v-.968a5.841,5.841,0,0,0,2.407.695q.205.013.408.013a6.009,6.009,0,0,0,2.8-.687v.948Zm2.162,2a.033.033,0,0,1-.026.016.032.032,0,0,1-.029-.01l-1.3-1.3,2.448-1.673.519.546Zm9.473-.438-1.177-1.177a1.423,1.423,0,0,0,.032-.308v-.219a3.637,3.637,0,0,0,1.027.182l.119,0a3.854,3.854,0,0,0,1.144-.173v.209a1.24,1.24,0,0,0,.037.3Zm1.956-3.352a2.788,2.788,0,0,1-2.043.792,2.9,2.9,0,0,1-2.723-2.948v-.97a.518.518,0,0,0-.055-.232l-.32-.641a1.709,1.709,0,0,1-.179-.76v-.031a2.257,2.257,0,0,1,2.255-2.255h4.474v2.155a2.267,2.267,0,0,1-.238,1.008l-.262.524a.518.518,0,0,0-.055.232v1.109A2.787,2.787,0,0,1,31.307,84.469Z" transform="translate(0 -68.066)" fill="#fff"/>
        </g>
      </g>
      <g id="Group_37" data-name="Group 37" transform="translate(32.16 89.7)">
        <g id="Group_36" data-name="Group 36">
          <path id="Path_357" data-name="Path 357" d="M465.442,380.814a.519.519,0,0,0-.519.519v3.328a.519.519,0,0,0,1.038,0v-3.328A.519.519,0,0,0,465.442,380.814Z" transform="translate(-464.923 -380.814)" fill="#fff"/>
        </g>
      </g>
      <g id="Group_39" data-name="Group 39" transform="translate(2.219 90.386)">
        <g id="Group_38" data-name="Group 38">
          <path id="Path_358" data-name="Path 358" d="M32.6,390.728a.519.519,0,0,0-.519.519v2.643a.519.519,0,0,0,1.038,0v-2.643A.519.519,0,0,0,32.6,390.728Z" transform="translate(-32.077 -390.728)" fill="#fff"/>
        </g>
      </g>
      <g id="Group_41" data-name="Group 41" transform="translate(13.313 72.779)">
        <g id="Group_40" data-name="Group 40" transform="translate(0 0)">
          <path id="Path_359" data-name="Path 359" d="M201.112,137.743c-1.962-1.962-6.068-1.587-7.742-1.335a1.065,1.065,0,0,0-.91,1.061v1.2a.519.519,0,0,0,1.038,0v-1.2a.034.034,0,0,1,.027-.035,16.39,16.39,0,0,1,3.37-.165,5.355,5.355,0,0,1,3.483,1.207.519.519,0,0,0,.734-.734Z" transform="translate(-192.46 -136.203)" fill="#fff"/>
        </g>
      </g>
      <g id="Group_43" data-name="Group 43" transform="translate(11.094 90.809)">
        <g id="Group_42" data-name="Group 42">
          <path id="Path_360" data-name="Path 360" d="M160.9,396.853a.519.519,0,0,0-.519.519v2.219a.519.519,0,0,0,1.038,0v-2.219A.519.519,0,0,0,160.9,396.853Z" transform="translate(-160.384 -396.853)" fill="#fff"/>
        </g>
      </g>
      <g id="Group_45" data-name="Group 45" transform="translate(23.298 90.809)">
        <g id="Group_44" data-name="Group 44">
          <path id="Path_361" data-name="Path 361" d="M337.325,396.853a.519.519,0,0,0-.519.519v2.219a.519.519,0,0,0,1.038,0v-2.219A.519.519,0,0,0,337.325,396.853Z" transform="translate(-336.806 -396.853)" fill="#fff"/>
        </g>
      </g>
    </g>
  </g>
</svg>
