<svg xmlns="http://www.w3.org/2000/svg" width="55" height="55" viewBox="0 0 55 55">
  <g id="fallecido" transform="translate(-1125 -3771)">
    <circle id="circle" cx="27.5" cy="27.5" r="27.5" transform="translate(1125 3771)" fill="#ff3341"/>
    <g id="dove" transform="translate(1135 3721.567)">
      <g id="Group_23" data-name="Group 23" transform="translate(2.451 64.577)">
        <g id="Group_22" data-name="Group 22" transform="translate(0 0)">
          <path id="Path_350" data-name="Path 350" d="M68.376,93.41a.736.736,0,0,0-.488-.539c-.016-.005-1.411-.463-3.2-.955,1.579-3.4,2.9-7.14,2.917-7.181a.736.736,0,0,0-.827-.969c-.382.07-9.142,1.7-12.47,4.147-1.012-1.7-2.252-3.208-4.354-3.333A5.873,5.873,0,0,0,44.75,87.2a9.861,9.861,0,0,0-1.184,2.135,22.854,22.854,0,0,0-2.239-4.383l-.01-.014a5.2,5.2,0,0,0-1.226-3.4,5.3,5.3,0,0,0-3.512-1.371.736.736,0,0,0-.732.7,5.319,5.319,0,0,0,1.224,3.566,5.023,5.023,0,0,0,3.039,1.34A21.126,21.126,0,0,1,43.55,96.415a.736.736,0,0,0,.735.7h.032a.736.736,0,0,0,.7-.767,22.431,22.431,0,0,0-.926-5.465.734.734,0,0,0,.217-.045c.018-.007,1.8-.634,2.8.369.293.293.2.889.017,1.919a9.288,9.288,0,0,0,1.614,7.978c2.033,2.795,5.188,4.242,9.2,4.242a18.379,18.379,0,0,0,1.964-.109,24.366,24.366,0,0,0,6.7-1.749.736.736,0,0,0-.011-1.347,21.941,21.941,0,0,1-5.177-3.4A29.092,29.092,0,0,0,68.163,94.1.736.736,0,0,0,68.376,93.41ZM38.132,83.418a3.194,3.194,0,0,1-.751-1.681,3.19,3.19,0,0,1,1.648.821h0a3.193,3.193,0,0,1,.752,1.68A3.194,3.194,0,0,1,38.132,83.418ZM58.319,99.15a.735.735,0,0,0,.953.419,4,4,0,0,0,.562-.272,23.672,23.672,0,0,0,4.647,3.424,23.068,23.068,0,0,1-4.768,1.062c-4.44.469-7.731-.722-9.78-3.539a7.807,7.807,0,0,1-1.356-6.851c.22-1.218.427-2.369-.424-3.221a3.681,3.681,0,0,0-2.9-.994,7.953,7.953,0,0,1,.7-1.136,4.4,4.4,0,0,1,3.911-1.992c1.4.083,2.285,1.069,3.32,2.861a7.088,7.088,0,0,0-2.165,4.83,6.53,6.53,0,0,0,1.92,4.719.736.736,0,1,0,1.041-1.041A5.051,5.051,0,0,1,52.5,93.772a5.9,5.9,0,0,1,2.11-4.189c.119-.109.245-.219.375-.327,2.168-1.8,8.151-3.222,10.789-3.784-.576,1.533-1.636,4.243-2.784,6.6l0,.007,0,.008c-1.06,2.309-2.2,4.649-3.514,5.681a2.868,2.868,0,0,1-.726.426A.736.736,0,0,0,58.319,99.15Zm3.991-2.535a33.3,33.3,0,0,0,1.745-3.346c.809.22,1.548.436,2.127.611A29.385,29.385,0,0,1,62.31,96.615Z" transform="translate(-35.844 -80.168)" fill="#fff"/>
        </g>
      </g>
      <g id="Group_25" data-name="Group 25" transform="translate(10.024 82.369)">
        <g id="Group_24" data-name="Group 24" transform="translate(0 0)">
          <path id="Path_351" data-name="Path 351" d="M147.515,340.435a.736.736,0,0,0-.8.671c-.038.447-.082.7-.083.705a.736.736,0,0,0,.594.853.746.746,0,0,0,.131.012.736.736,0,0,0,.724-.606c0-.013.056-.315.1-.84A.736.736,0,0,0,147.515,340.435Z" transform="translate(-146.625 -340.433)" fill="#fff"/>
        </g>
      </g>
      <g id="Group_27" data-name="Group 27" transform="translate(0 71.005)">
        <g id="Group_26" data-name="Group 26" transform="translate(0 0)">
          <path id="Path_352" data-name="Path 352" d="M7.045,175.793a5.315,5.315,0,0,0-3.419-1.59h0A5.321,5.321,0,0,0,.2,175.784a.736.736,0,0,0,0,1.015,5.315,5.315,0,0,0,3.418,1.59h.005a5.318,5.318,0,0,0,3.418-1.581A.736.736,0,0,0,7.045,175.793Zm-3.419,1.125h0a3.191,3.191,0,0,1-1.731-.623,3.2,3.2,0,0,1,1.732-.62h0a3.191,3.191,0,0,1,1.732.623A3.2,3.2,0,0,1,3.626,176.917Z" transform="translate(0 -174.203)" fill="#fff"/>
        </g>
      </g>
      <g id="Group_29" data-name="Group 29" transform="translate(8.774 63.433)">
        <g id="Group_28" data-name="Group 28" transform="translate(0 0)">
          <path id="Path_353" data-name="Path 353" d="M131.483,63.721a.736.736,0,0,0-1-.158,5.317,5.317,0,0,0-2.1,3.132,5.314,5.314,0,0,0,1.035,3.626.736.736,0,0,0,1,.158,5.32,5.32,0,0,0,2.1-3.133A5.317,5.317,0,0,0,131.483,63.721Zm-.419,3.4a3.2,3.2,0,0,1-.883,1.616,3.2,3.2,0,0,1-.345-1.808h0a3.192,3.192,0,0,1,.882-1.615A3.2,3.2,0,0,1,131.064,67.118Z" transform="translate(-128.339 -63.433)" fill="#fff"/>
        </g>
      </g>
      <g id="Group_31" data-name="Group 31" transform="translate(15.152 71.731)">
        <g id="Group_30" data-name="Group 30" transform="translate(0 0)">
          <path id="Path_354" data-name="Path 354" d="M222.39,184.822a.736.736,0,0,0-.736.736v.193a.736.736,0,1,0,1.472,0v-.193A.736.736,0,0,0,222.39,184.822Z" transform="translate(-221.654 -184.822)" fill="#fff"/>
        </g>
      </g>
    </g>
  </g>
</svg>
