<svg width="65px" height="65px" version="1.0" xmlns="http://www.w3.org/2000/svg"
 width="100.000000pt" height="100.000000pt" viewBox="0 0 100.000000 100.000000"
 preserveAspectRatio="xMidYMid meet">
<g transform="translate(0.000000,100.000000) scale(0.100000,-0.100000)"
 stroke="none">
<path fill="#F5871F" d="M240 802 c-46 -48 -55 -68 -104 -242 -22 -79 -50 -119 -96 -138 -37
-16 -40 -20 -40 -56 0 -94 117 -234 252 -301 105 -51 197 -68 343 -62 66 2
144 10 173 17 l53 12 -6 39 c-4 21 -2 54 5 73 12 36 93 119 148 151 18 11 31
24 29 30 -2 5 -30 11 -62 13 -46 2 -62 -1 -79 -17 -20 -18 -258 -121 -282
-121 -19 0 -44 35 -44 61 0 35 22 62 80 99 27 18 50 36 50 41 0 5 -23 9 -51 9
-44 0 -69 -9 -174 -65 -67 -36 -129 -65 -137 -65 -8 0 -25 11 -37 24 -19 20
-22 32 -17 60 4 20 2 37 -4 41 -28 17 5 105 39 105 6 0 11 15 13 33 3 28 10
36 57 59 30 15 56 29 57 31 2 2 -16 41 -39 88 -24 46 -46 94 -49 107 -9 33
-27 27 -78 -26z"/>
<path  fill="#5AA7C1" d="M791 675 l-44 -55 -161 -1 c-154 0 -163 -1 -216 -27 -39 -19 -56 -34
-58 -49 -4 -28 4 -28 64 -3 26 11 49 19 51 16 2 -2 -31 -18 -74 -36 -96 -40
-103 -45 -103 -80 0 -49 27 -45 117 15 45 30 86 55 90 55 4 0 -38 -30 -92 -67
-81 -55 -101 -73 -103 -95 -3 -21 2 -30 21 -39 21 -9 39 -3 139 50 109 58 118
61 185 61 98 0 103 -18 21 -71 -34 -22 -66 -45 -70 -52 -13 -21 -9 -67 7 -73
8 -4 52 9 98 29 45 19 98 40 118 46 19 6 51 28 71 49 57 58 148 176 148 190 0
13 -148 192 -159 192 -3 0 -26 -25 -50 -55z"/>
</g>
</svg>
