<?xml version="1.0" encoding="utf-8"?>
<!-- Generator: Adobe Illustrator 24.1.0, SVG Export Plug-In . SVG Version: 6.00 Build 0)  -->
<svg version="1.1" id="Layer_1" xmlns="http://www.w3.org/2000/svg" xmlns:xlink="http://www.w3.org/1999/xlink" x="0px" y="0px"
	 viewBox="0 0 68 65" style="enable-background:new 0 0 68 65;" xml:space="preserve">
<style type="text/css">
	.st0{fill:#5AA7C1;}
	.st1{fill:#F5871F;}
</style>
<g>
	<path class="st0" d="M8,44.1c0.9,0.6,2,0.9,3.1,0.9c0.1,0,0.1,0,0.2,0c0.4,0,0.8-0.1,1.2-0.2c0.5,1.4,1.1,2.7,1.7,4
		c0,0.1,0.1,0.1,0.1,0.2c1.2,2.4,3,4.8,5.2,7c2,1.9,4.1,3.6,6.3,4.7c2.3,1.2,4.4,1.9,6.1,1.9c1.8,0,3.9-0.7,6.1-1.9
		c2.2-1.2,4.3-2.8,6.3-4.7c2-1.9,3.6-4,4.7-6c0.1-0.1,0.1-0.2,0.2-0.3c0.8-1.5,1.5-3.1,2.2-4.8c0.4,0.1,0.8,0.2,1.2,0.2
		c0.1,0,0.1,0,0.2,0c1.1,0,2.1-0.3,3.1-0.9c1.6-1,3-3,4-5.5c1-2.5,1.1-4.9,0.5-6.7c-0.5-1.3-1.7-3-3.6-3.5c-0.5-0.1-1.1-0.2-1.9-0.1
		c0.1-1.3,0.1-2.7,0.1-3.9c0-4.1,0-11.1-3.2-14C51,9.6,50,9.2,48.8,9.1c-1.4-3-3.9-5.1-7.3-6.4c-2.6-1-5.7-1.4-9.6-1.4
		c-4.3,0-8.2,0.8-11.4,2.3c-2.9,1.3-5.3,3.3-7.2,5.8c-1.6,2.1-2.8,4.7-3.6,7.6c-0.7,2.4-1,5-1,7.7c0,1.2,0,2.5,0.1,3.9
		c-0.7-0.1-1.4,0-1.9,0.1C5.2,29,4,30.7,3.5,32c-0.6,1.7-0.4,4.1,0.5,6.7C5,41.1,6.4,43.1,8,44.1z M11.6,24.5c0-3.1,0.5-8.9,4-13.6
		c3.5-4.6,9-7,16.4-7c3.5,0,6.4,0.4,8.6,1.3c3,1.1,5,3,6.1,5.7c0.2,0.5,0.8,0.9,1.3,0.9c0.8-0.1,1.5,0.2,2,0.7c1,0.9,1.6,2.7,2,5.2
		c0.3,2.1,0.3,4.4,0.3,6.2l-2.8-5.1c-0.2-0.4-0.6-0.6-1-0.7c-0.4-0.1-0.8,0.1-1.1,0.3l-1.1,0.9l-1.2-5.7c-0.1-0.4-0.3-0.7-0.7-0.9
		c-0.4-0.2-0.8-0.2-1.2-0.1l-12.4,5.1l0.1-2.9c0-0.5-0.3-1-0.7-1.3c-0.5-0.2-1-0.2-1.5,0.1l-7.4,5.8l-2-3.3
		c-0.2-0.4-0.7-0.6-1.2-0.6c0,0,0,0,0,0c-0.5,0-0.9,0.2-1.2,0.6l-5.5,8.9C11.6,24.9,11.6,24.7,11.6,24.5z M42.5,54.1
		c-1.8,1.7-3.7,3.2-5.7,4.3c-1.8,1-3.6,1.6-4.8,1.6s-3-0.6-4.8-1.6c-1.9-1.1-3.9-2.5-5.7-4.3c-1.9-1.8-3.5-3.9-4.6-5.9
		c-1.2-2.2-1.8-4.4-1.8-6.4c0-2.1,0.4-3.9,1.3-5.6c0.8-1.6,2-2.9,3.5-4c3-2.2,7.3-3.4,12.1-3.4s9.1,1.2,12.1,3.4
		c1.5,1.1,2.7,2.5,3.5,4c0.9,1.6,1.3,3.5,1.3,5.6c0,2-0.6,4.1-1.8,6.4C46,50.2,44.4,52.2,42.5,54.1z M12.7,35.6
		c-0.4-1.9-0.6-3.8-0.8-5.7c0,0,0-0.1,0.1-0.1l6.3-10.2l1.7,2.7c0.2,0.3,0.5,0.6,0.9,0.6c0.4,0.1,0.8,0,1.1-0.3l6.3-4.9l-0.1,2.1
		c0,0.5,0.2,0.9,0.6,1.2c0.4,0.3,0.9,0.3,1.3,0.1l12.9-5.3l1.3,6.4c0.1,0.5,0.4,0.9,0.9,1c0.5,0.2,1,0,1.3-0.3l1.6-1.4l4.2,7.4
		c-0.2,2.5-0.6,5.3-1.2,8.1c-0.9-2.9-2.7-5.3-5.2-7.2c-1.8-1.3-3.9-2.3-6.2-3c-2.3-0.7-4.8-1-7.5-1s-5.2,0.3-7.5,1
		c-2.4,0.7-4.5,1.7-6.2,3c-2.6,1.9-4.3,4.3-5.2,7.2C12.9,36.6,12.8,36.1,12.7,35.6z M56.1,31.2c0.9,0.2,1.5,1.1,1.8,1.8
		c0.9,2.3-1.1,7.4-3.4,8.9c-0.7,0.5-1.5,0.6-2.1,0.4c0.6-1.8,1-3.7,1.5-5.7c0.3-1.7,0.6-3.5,0.8-5.2C55.2,31.1,55.7,31,56.1,31.2z
		 M6.1,32.9c0.3-0.7,0.9-1.6,1.8-1.8c0.4-0.1,0.9-0.1,1.4,0.2c0.4,3.5,1.1,7.3,2.3,11c-0.6,0.1-1.4,0-2.1-0.4
		C7.2,40.4,5.2,35.3,6.1,32.9z"/>
	<path class="st1" d="M24.6,37c2.1-1.1,4.7-1.7,7.4-1.7c2.7,0,5.3,0.6,7.4,1.7c0.2,0.1,0.4,0.2,0.6,0.2c0.5,0,1-0.3,1.2-0.7
		c0.3-0.7,0.1-1.5-0.6-1.8c-2.5-1.3-5.5-2-8.6-2c-3.2,0-6.1,0.7-8.6,2c-0.7,0.3-0.9,1.2-0.6,1.8C23.1,37.1,23.9,37.4,24.6,37z"/>
	<path class="st1" d="M40,39.9H24c-0.8,0-1.4,0.6-1.4,1.4c0,0.8,0.6,1.4,1.4,1.4h16c0.8,0,1.4-0.6,1.4-1.4
		C41.3,40.6,40.7,39.9,40,39.9z"/>
	<path class="st1" d="M41.3,47.8c0-0.8-0.6-1.4-1.4-1.4H24c-0.8,0-1.4,0.6-1.4,1.4c0,0.8,0.6,1.4,1.4,1.4h16
		C40.7,49.2,41.3,48.6,41.3,47.8z"/>
</g>
</svg>
