<?xml version="1.0" encoding="UTF-8"?>
<svg width="65px" height="65px" xmlns="http://www.w3.org/2000/svg" id="Travel" viewBox="0 0 64 64" width="512" height="512"><path fill="#5AA7C1" d="M21,38h2v6.249a8.673,8.673,0,0,1,4.575,1.939,6.853,6.853,0,0,0,8.831,0A8.652,8.652,0,0,1,41,44.247V38h2v6.249a8.027,8.027,0,0,1,4.007,1.535L47,45.777V36a5.006,5.006,0,0,0-5-5H35a1,1,0,0,1-1-1v-3.3A7.01,7.01,0,0,0,39,20V19h1a1,1,0,0,0,1-1V17a1,1,0,0,0-1-1H24a1,1,0,0,0-1,1v1a1,1,0,0,0,1,1h1v1a7.01,7.01,0,0,0,5,6.7V30a1,1,0,0,1-1,1H22a5.006,5.006,0,0,0-5,5v9.767l-.008.007A8.027,8.027,0,0,1,21,44.247ZM34,18a1,1,0,0,1,2,0v1a1,1,0,0,1-2,0Zm-5,2a1,1,0,0,1-1-1V18a1,1,0,0,1,2,0v1A1,1,0,0,1,29,20Z"/><path fill="#5AA7C1" d="M32,7a7.008,7.008,0,0,0-7,7H39A7.008,7.008,0,0,0,32,7Z"/><path fill="#F5871F" d="M57.684,38.465A8.926,8.926,0,0,1,52,40.8a8.5,8.5,0,0,1-3-.5v6.816a6.129,6.129,0,0,0,3,.688,6.977,6.977,0,0,0,4.47-1.924A8.122,8.122,0,0,1,60,44.021V37.067A7.653,7.653,0,0,0,57.684,38.465Z"/><path fill="#F5871F" d="M52,49.8a8.022,8.022,0,0,1-4.53-1.262h0c-.368-.231-.713-.478-1.057-.726a6.862,6.862,0,0,0-8.836,0,8.838,8.838,0,0,1-11.169,0,6.859,6.859,0,0,0-8.836,0c-.338.243-.676.486-1.037.712A7.943,7.943,0,0,1,11.99,49.8a8.916,8.916,0,0,1-5.683-2.335A7.719,7.719,0,0,0,4,46.07V60H60V46.067a7.653,7.653,0,0,0-2.316,1.4A8.926,8.926,0,0,1,52,49.8Z"/><path fill="#F5871F" d="M11.99,47.8A6.042,6.042,0,0,0,15,47.1v-6.81a8.383,8.383,0,0,1-3.01.507,8.916,8.916,0,0,1-5.683-2.335A7.719,7.719,0,0,0,4,37.07v6.954a8.143,8.143,0,0,1,3.521,1.852A6.974,6.974,0,0,0,11.99,47.8Z"/></svg>
