<svg xmlns="http://www.w3.org/2000/svg" width="55" height="55" viewBox="0 0 55 55">
  <g id="Group_1794" data-name="Group 1794" transform="translate(-1118 -3926)">
    <circle id="circle" cx="27.5" cy="27.5" r="27.5" transform="translate(1118 3926)" fill="#0eb140"/>
    <g id="heart" transform="translate(1128 3884.6)">
      <g id="Group_1793" data-name="Group 1793" transform="translate(0 56.4)">
        <g id="Group_1792" data-name="Group 1792" transform="translate(0 0)">
          <path id="Path_374" data-name="Path 374" d="M34.914,68.86H31.909a9.516,9.516,0,0,0,.642-6.686,8.038,8.038,0,0,0-7.6-5.774,9.5,9.5,0,0,0-3.275.608A16.988,16.988,0,0,0,17.9,58.9a16.212,16.212,0,0,0-3.782-1.891,9.644,9.644,0,0,0-3.275-.608,8.038,8.038,0,0,0-7.6,5.774,9.8,9.8,0,0,0,.945,7.294H.54a.54.54,0,0,0,0,1.081H4.829a7.129,7.129,0,0,0,.608.912c3.512,5.065,11.143,10.569,12.527,10.906V82.4a.1.1,0,0,0,.068-.034h.1v-.034c1.182-.574,8.509-5.3,12.358-10.906a12.422,12.422,0,0,0,.945-1.519h3.545a.533.533,0,0,0,.54-.54A.567.567,0,0,0,34.914,68.86Zm-5.4,1.992c-3.579,5.234-10.164,9.455-11.582,10.366-1.452-.912-8-5.166-11.616-10.366l-.2-.3h4.964a.557.557,0,0,0,.506-.3l2.262-4.457L17.39,74.87a.553.553,0,0,0,.506.338h.034a.538.538,0,0,0,.506-.405l3.106-10.636L23.2,69.535a.55.55,0,0,0,.439.371.585.585,0,0,0,.54-.236l1.317-1.925,1.114,1.891a.539.539,0,0,0,.473.27h3.039C29.917,70.244,29.714,70.548,29.512,70.852Zm1.216-1.992H27.418L26.034,66.5a.539.539,0,0,0-.473-.27.511.511,0,0,0-.473.236L23.94,68.151l-1.857-6.044a.626.626,0,0,0-.54-.405.578.578,0,0,0-.54.405l-3.14,10.839-3.41-8.712a.508.508,0,0,0-.473-.338.524.524,0,0,0-.506.3l-2.668,5.234H5.436a9.112,9.112,0,0,1-1.114-6.956,6.9,6.9,0,0,1,6.551-4.964,8.982,8.982,0,0,1,2.9.54,16.415,16.415,0,0,1,3.816,1.958.514.514,0,0,0,.675,0,14.721,14.721,0,0,1,3.816-1.958,8.163,8.163,0,0,1,2.9-.54,6.932,6.932,0,0,1,6.551,4.964A8.877,8.877,0,0,1,30.727,68.86Z" transform="translate(0 -56.4)" fill="#fff"/>
        </g>
      </g>
    </g>
  </g>
</svg>
